<svg width="503" height="563" viewBox="0 0 503 563" fill="none" xmlns="http://www.w3.org/2000/svg">
<path d="M2.39769 178.213L85.5183 336.871C91.0597 347.662 105.351 356.412 116.725 356.412L286.466 356.12C298.132 356.12 302.798 347.371 297.257 336.579L214.136 177.63C208.595 166.838 194.596 158.089 182.93 158.089L13.1888 158.381C12.8971 158.381 12.6055 158.381 12.3138 158.381C1.23109 158.964 -3.14368 167.422 2.39769 178.213Z" fill="#171717"/>
<path d="M324.959 362.828L375.414 456.74C378.914 463.156 387.372 468.406 394.08 468.114L495.283 466.948C502.283 466.948 504.908 461.698 501.408 455.281L451.244 361.661C447.744 355.245 439.286 349.995 432.578 350.287L331.375 351.454H331.083C324.375 351.454 321.459 356.412 324.959 362.828Z" fill="#171717"/>
<path d="M325.529 5.85127L224.326 135.636C217.326 144.386 216.451 160.426 222.284 171.218L306.863 329.001C312.696 339.792 322.904 341.25 329.903 332.501L431.107 202.716C438.106 193.966 438.981 177.926 433.148 167.134L348.569 9.35109C345.069 2.93476 340.403 -0.273402 335.445 0.0182494C331.945 0.309901 328.445 2.05981 325.529 5.85127Z" fill="#171717"/>
<path d="M301.925 364.586L241.554 441.874C237.47 447.124 236.887 456.748 240.387 463.164L290.843 557.076C294.342 563.492 300.467 564.367 304.55 559.118L364.922 481.83C369.005 476.58 369.588 466.956 366.089 460.539L315.633 366.628C313.591 362.836 310.675 361.086 307.758 361.086C305.717 361.086 303.675 362.253 301.925 364.586Z" fill="#171717"/>
</svg>
