<svg width="24" height="24" viewBox="0 0 24 24" fill="none" xmlns="http://www.w3.org/2000/svg">
<path d="M14.71 9.33984H9.29C9.18 9.33984 9.1 9.41984 9.09 9.51984C9.03 10.2998 9 11.1198 9 11.9998C9 12.8798 9.03 13.6998 9.09 14.4798C9.09 14.5898 9.19 14.6598 9.29 14.6598H14.71C14.82 14.6598 14.9 14.5798 14.91 14.4798C14.97 13.6998 15 12.8798 15 11.9998C15 11.1198 14.97 10.2998 14.91 9.51984C14.91 9.40984 14.81 9.33984 14.71 9.33984Z" fill="#171717"/>
<path d="M9.55022 16.6699C9.43022 16.6699 9.33022 16.7899 9.35022 16.9099C9.97022 20.8799 11.2402 22.9999 12.0002 22.9999C12.7502 22.9999 14.0302 20.8799 14.6502 16.9099C14.6702 16.7899 14.5702 16.6699 14.4502 16.6699H9.56022H9.55022Z" fill="#171717"/>
<path d="M17.0002 12.0001C17.0002 12.8201 16.9702 13.6501 16.9102 14.4601C16.9102 14.5701 16.9902 14.6701 17.1102 14.6701H22.5002C22.5902 14.6701 22.6802 14.6101 22.7002 14.5101C22.8902 13.7001 23.0002 12.8601 23.0002 12.0001C23.0002 11.1401 22.8902 10.3001 22.7002 9.49008C22.6802 9.40008 22.6002 9.33008 22.5002 9.33008H17.1102C17.0002 9.33008 16.9102 9.43008 16.9102 9.54008C16.9702 10.3501 17.0002 11.1701 17.0002 11.9901V12.0001Z" fill="#171717"/>
<path d="M16.8592 7.33972H21.6192C21.7692 7.33972 21.8692 7.17972 21.7992 7.04972C20.4992 4.48972 18.2292 2.49972 15.4692 1.57972C15.2992 1.51972 15.1492 1.68972 15.2292 1.84972C15.8892 3.27972 16.3692 5.12972 16.6592 7.16972C16.6692 7.26972 16.7592 7.33972 16.8592 7.33972Z" fill="#171717"/>
<path d="M14.4502 7.34C14.5702 7.34 14.6702 7.22 14.6502 7.1C14.0302 3.12 12.7602 1 12.0002 1C11.2402 1 9.97022 3.12 9.35022 7.1C9.33022 7.22 9.43022 7.34 9.55022 7.34H14.4402H14.4502Z" fill="#171717"/>
<path d="M16.6703 16.8402C16.3803 18.8702 15.9003 20.7302 15.2403 22.1502C15.1703 22.3102 15.3203 22.4802 15.4803 22.4202C18.2403 21.5002 20.5103 19.5202 21.8003 16.9502C21.8703 16.8202 21.7703 16.6602 21.6203 16.6602H16.8603C16.7603 16.6602 16.6803 16.7302 16.6603 16.8302L16.6703 16.8402Z" fill="#171717"/>
<path d="M7.13858 16.6699H2.37858C2.22858 16.6699 2.12858 16.8299 2.19858 16.9599C3.49858 19.5199 5.76858 21.4999 8.51858 22.4299C8.68858 22.4899 8.83858 22.3199 8.75858 22.1599C8.09858 20.7399 7.61858 18.8799 7.32858 16.8499C7.31858 16.7499 7.22858 16.6799 7.12858 16.6799L7.13858 16.6699Z" fill="#171717"/>
<path d="M7.33077 7.15995C7.62077 5.11995 8.10077 3.26995 8.76077 1.83995C8.83077 1.67995 8.68077 1.50995 8.52077 1.56995C5.76077 2.48995 3.49077 4.46995 2.19077 7.03995C2.12077 7.16995 2.22077 7.32995 2.37077 7.32995H7.13077C7.23077 7.32995 7.31077 7.25995 7.33077 7.15995Z" fill="#171717"/>
<path d="M7 11.9998C7 11.1798 7.03 10.3598 7.09 9.54984C7.09 9.43984 7.01 9.33984 6.89 9.33984H1.5C1.41 9.33984 1.32 9.39984 1.3 9.49984C1.11 10.3098 1 11.1398 1 12.0098C1 12.8798 1.11 13.7098 1.3 14.5198C1.32 14.6098 1.4 14.6798 1.5 14.6798H6.89C7 14.6798 7.09 14.5798 7.09 14.4698C7.03 13.6598 7 12.8398 7 12.0098V11.9998Z" fill="#171717"/>
</svg>
