<svg width="24" height="24" viewBox="0 0 24 24" fill="none" xmlns="http://www.w3.org/2000/svg">
<path d="M13.82 18.8C13.36 18.31 12.72 18 12 18C11.28 18 10.64 18.31 10.18 18.8C9.76 19.25 9.5 19.84 9.5 20.5C9.5 21.88 10.62 23 12 23C13.38 23 14.5 21.88 14.5 20.5C14.5 19.84 14.24 19.24 13.82 18.8Z" fill="#171717"/>
<path d="M14.9417 1.02002H9.07173C8.49173 1.02002 8.04173 1.51002 8.07173 2.08002L8.95173 16.17C8.98173 16.7 9.42173 17.11 9.95173 17.11H14.0717C14.6017 17.11 15.0417 16.7 15.0717 16.17L15.9517 2.08002C15.9917 1.50002 15.5317 1.02002 14.9517 1.02002H14.9417Z" fill="#171717"/>
</svg>
