<svg width="24" height="24" viewBox="0 0 24 24" fill="none" xmlns="http://www.w3.org/2000/svg">
<path d="M22.07 9.02979H18.49V7.51978C18.49 3.93979 15.58 1.02979 12 1.02979C8.42 1.02979 5.51 3.93979 5.51 7.51978V9.02979H1.93C1.41 9.02979 1 9.44979 1 9.95979V22.0298C1 22.5498 1.42 22.9598 1.93 22.9598H22.06C22.58 22.9598 22.99 22.5398 22.99 22.0298V9.95979C22.99 9.43979 22.57 9.02979 22.06 9.02979H22.07ZM13 18.4998C13 18.7798 12.78 18.9998 12.5 18.9998H11.5C11.22 18.9998 11 18.7798 11 18.4998V13.4998C11 13.2198 11.22 12.9998 11.5 12.9998H12.5C12.78 12.9998 13 13.2198 13 13.4998V18.4998ZM14.49 9.02979H9.51V7.51978C9.51 6.14979 10.63 5.02979 12 5.02979C13.37 5.02979 14.49 6.14979 14.49 7.51978V9.02979Z" fill="#171717"/>
</svg>
