<svg width="24" height="24" viewBox="0 0 24 24" fill="none" xmlns="http://www.w3.org/2000/svg">
<path d="M16.5 0.856445C16.7761 0.856445 16.9999 1.08037 17 1.35645V10.5C17 10.7761 16.7761 11 16.5 11H13.0713C13.0268 11.0655 13 11.1432 13 11.2266V12.5996C13 12.8205 13.1795 13 13.4004 13H20.5996C20.8205 13 21 13.1795 21 13.4004V16.5332C21 16.7541 21.1795 16.9336 21.4004 16.9336H22.5996C22.8205 16.9336 23 17.1131 23 17.334V22.5996C23 22.8205 22.8205 23 22.5996 23H17.4004C17.1795 23 17 22.8205 17 22.5996V17.334C17 17.1131 17.1795 16.9336 17.4004 16.9336H18.5996C18.8205 16.9336 19 16.7541 19 16.5332V15.4004C19 15.1795 18.8205 15 18.5996 15H13.4004C13.1795 15 13 15.1795 13 15.4004V16.5332C13 16.7541 13.1795 16.9336 13.4004 16.9336H14.5996C14.8205 16.9336 15 17.1131 15 17.334V22.5996C15 22.8205 14.8205 23 14.5996 23H9.40039C9.17948 23 9 22.8205 9 22.5996V17.334C9 17.1131 9.17948 16.9336 9.40039 16.9336H10.5996C10.8205 16.9336 11 16.7541 11 16.5332V15.4004C11 15.1795 10.8205 15 10.5996 15H5.40039C5.17948 15 5 15.1795 5 15.4004V16.5332C5 16.7541 5.17948 16.9336 5.40039 16.9336H6.59961C6.82052 16.9336 7 17.1131 7 17.334V22.5996C7 22.8205 6.82052 23 6.59961 23H1.40039C1.17948 23 1 22.8205 1 22.5996V17.334C1 17.1131 1.17948 16.9336 1.40039 16.9336H2.59961C2.82052 16.9336 3 16.7541 3 16.5332V13.4004C3 13.1795 3.17948 13 3.40039 13H10.5996C10.8205 13 11 12.8205 11 12.5996V11.2266C11 11.1429 10.9725 11.0657 10.9277 11H7.5C7.22386 11 7 10.7761 7 10.5V6.16992C6.99807 6.11286 6.99609 6.05558 6.99609 5.99805C6.9961 5.94871 6.99858 5.89958 7 5.85059V1.35645C7.00008 1.08037 7.22391 0.856445 7.5 0.856445H16.5Z" fill="#171717"/>
</svg>
