<svg width="24" height="24" viewBox="0 0 24 24" fill="none" xmlns="http://www.w3.org/2000/svg">
<path d="M22.08 5.12992H11.24C11.19 5.12992 11.14 5.10992 11.1 5.06992L8.22 2.18992C8.05 2.01992 7.81 1.91992 7.57 1.91992H2C1.45 1.91992 1 2.36992 1 2.91992V21.0899C1 21.6399 1.45 22.0899 2 22.0899H22C22.55 22.0899 23 21.6399 23 21.0899V6.03992C23 5.52992 22.59 5.11992 22.08 5.11992V5.12992ZM21.17 10.6299H2.83V8.37992C2.83 8.09992 3.05 7.87992 3.33 7.87992H20.66C20.94 7.87992 21.16 8.09992 21.16 8.37992V10.6299H21.17Z" fill="#171717"/>
</svg>
