<svg width="24" height="24" viewBox="0 0 24 24" fill="none" xmlns="http://www.w3.org/2000/svg">
<path d="M20.71 4.76022L17.27 1.27021C17.08 1.08021 16.82 0.970215 16.55 0.970215L3.99 1.04021C3.44 1.04021 3 1.49021 3 2.04021V22.0502C3 22.6002 3.45 23.0502 4 23.0502H20C20.55 23.0502 21 22.6002 21 22.0502V5.46021C21 5.20021 20.9 4.95022 20.71 4.76022ZM16.99 16.5302C16.99 16.8102 16.77 17.0302 16.49 17.0302H7.49C7.21 17.0302 6.99 16.8102 6.99 16.5302V15.5302C6.99 15.2502 7.21 15.0302 7.49 15.0302H16.49C16.77 15.0302 16.99 15.2502 16.99 15.5302V16.5302ZM16.99 12.5602C16.99 12.8402 16.77 13.0602 16.49 13.0602H7.49C7.21 13.0602 6.99 12.8402 6.99 12.5602V11.5602C6.99 11.2802 7.21 11.0602 7.49 11.0602H16.49C16.77 11.0602 16.99 11.2802 16.99 11.5602V12.5602ZM16.99 8.54021C16.99 8.82021 16.77 9.04021 16.49 9.04021H7.49C7.21 9.04021 6.99 8.82021 6.99 8.54021V7.54021C6.99 7.26021 7.21 7.04021 7.49 7.04021H16.49C16.77 7.04021 16.99 7.26021 16.99 7.54021V8.54021Z" fill="#171717"/>
</svg>
